# xmcd
#
# Track frame offsets:
# 150
# 21703
# 41721
# 61559
# 77623
# 98134
# 125992
# 134227
# 153641
# 183755
# 204595
# 225986
#
# Disc length: 3081 seconds
#
#
# Revision: 0
# Processed by: cddbd v1.5.2PL0 Copyright (c) Steve Scherf et al.
# Submitted via: FreeRIP 2.70 
#
DISCID=a50c070c
DTITLE=Wentus Blues Band - Family Meeting CD2
DYEAR=2007
DGENRE=Blues
TTITLE0=I heard the angels singing
TTITLE1=Down the line
TTITLE2=Looking for trouble
TTITLE3=Hold that note
TTITLE4=Annie-Lee
TTITLE5=Blind Willie McTell
TTITLE6=Backroom delta
TTITLE7=Ride on red
TTITLE8=Ventilator blues
TTITLE9=Raining in my heart
TTITLE10=Biscuit roller
TTITLE11=Outro: Great final
EXTD=
EXTT0=
EXTT1=
EXTT2=
EXTT3=
EXTT4=
EXTT5=
EXTT6=
EXTT7=
EXTT8=
EXTT9=
EXTT10=
EXTT11=
PLAYORDER=
